<svg xmlns="http://www.w3.org/2000/svg" viewBox="0 0 64 64" width="64" height="64">
  <defs>
    <!-- Gradient for modern look -->
    <linearGradient id="medicalGradient" x1="0%" y1="0%" x2="100%" y2="100%">
      <stop offset="0%" stop-color="#0EA5E9"/>
      <stop offset="50%" stop-color="#0284C7"/>
      <stop offset="100%" stop-color="#0369A1"/>
    </linearGradient>
    <filter id="shadow" x="-20%" y="-20%" width="140%" height="140%">
      <feDropShadow dx="2" dy="2" stdDeviation="2" flood-color="#000000" flood-opacity="0.3"/>
    </filter>
  </defs>
  
  <!-- Background circle with gradient -->
  <circle cx="32" cy="32" r="30" fill="url(#medicalGradient)" stroke="#ffffff" stroke-width="2" filter="url(#shadow)"/>
  
  <!-- Medical symbol - Rod of Asclepius (single snake) -->
  <!-- Central staff -->
  <rect x="30" y="8" width="4" height="48" fill="#ffffff" rx="2"/>
  
  <!-- Snake wrapped around staff -->
  <path d="M 28 12 Q 24 16 28 20 Q 36 24 28 28 Q 24 32 28 36 Q 36 40 28 44 Q 24 48 28 52" 
        stroke="#ffffff" stroke-width="3" fill="none" stroke-linecap="round"/>
  
  <!-- Snake head -->
  <ellipse cx="26" cy="52" rx="3" ry="2" fill="#ffffff"/>
  <circle cx="24" cy="51" r="0.5" fill="#0EA5E9"/>
  
  <!-- Cross symbol on top -->
  <rect x="29" y="6" width="6" height="2" fill="#ffffff" rx="1"/>
  <rect x="31" y="4" width="2" height="6" fill="#ffffff" rx="1"/>
  
  <!-- Small medical plus signs as accents -->
  <g fill="#ffffff" opacity="0.8">
    <rect x="12" y="15" width="2" height="6" rx="0.5"/>
    <rect x="10" y="17" width="6" height="2" rx="0.5"/>
    
    <rect x="50" y="25" width="2" height="6" rx="0.5"/>
    <rect x="48" y="27" width="6" height="2" rx="0.5"/>
    
    <rect x="46" y="45" width="2" height="6" rx="0.5"/>
    <rect x="44" y="47" width="6" height="2" rx="0.5"/>
  </g>
</svg>
